<svg width="38" height="38" viewBox="0 0 38 38" fill="none" xmlns="http://www.w3.org/2000/svg">
<path d="M 437.019 74.981 C 388.668 26.629 324.38 0 256 0 C 187.619 0 123.332 26.629 74.98 74.981 C 26.629 123.332 0 187.62 0 256 s 26.629 132.668 74.981 181.02 C 123.332 485.371 187.619 512 256 512 c 68.38 0 132.668 -26.629 181.019 -74.98 C 485.37 388.668 512 324.38 512 256 S 485.37 123.332 437.019 74.981 Z M 182.06 35.044 c -10.76 11.17 -20.727 24.896 -29.67 41.004 c -6.283 -5.617 -12.448 -11.75 -18.472 -18.408 C 148.928 48.368 165.057 40.748 182.06 35.044 Z M 114.821 70.789 c 8.71 9.833 17.715 18.705 26.979 26.573 c -11.776 26.527 -20.372 56.726 -25.438 89.028 c -27.946 -9.887 -50.19 -23.266 -65.638 -39.851 c -0.074 -0.079 -0.154 -0.146 -0.229 -0.222 C 66.331 116.767 88.354 91.014 114.821 70.789 Z M 23.011 256 c 0 -30.947 6.08 -60.495 17.084 -87.537 c 19.925 18.859 45.443 32.164 73.248 41.426 c -1.522 15.064 -2.31 30.48 -2.31 46.107 c 0 15.629 0.788 31.046 2.31 46.112 c -27.807 9.261 -53.325 22.565 -73.252 41.421 C 29.09 316.491 23.011 286.944 23.011 256 Z M 114.81 441.201 c -26.465 -20.225 -48.485 -45.978 -64.319 -75.526 c 0.076 -0.077 0.158 -0.145 0.232 -0.226 c 15.45 -16.582 37.695 -29.958 65.641 -39.844 c 5.066 32.297 13.662 62.494 25.434 89.019 C 132.531 422.494 123.522 431.367 114.81 441.201 Z M 133.905 454.353 c 6.031 -6.664 12.201 -12.8 18.49 -18.42 c 8.943 16.109 18.905 29.851 29.665 41.024 C 165.052 471.251 148.917 463.628 133.905 454.353 Z M 244.492 487.923 c -27.028 -4.988 -52.52 -27.467 -72.765 -64.557 c -0.366 -0.67 -0.72 -1.354 -1.082 -2.031 c 23.512 -16.669 48.395 -26.35 73.846 -28.595 V 487.923 Z M 244.492 369.659 c -29.091 2.162 -57.339 12.518 -83.847 30.583 c -10.239 -24.368 -17.696 -51.958 -22.063 -81.446 c 30.339 -7.986 65.982 -12.484 105.91 -13.206 V 369.659 Z M 244.492 282.564 c -34.062 0.589 -72.477 3.926 -108.671 13.015 c -1.172 -12.948 -1.778 -26.175 -1.778 -39.583 c 0 -13.405 0.605 -26.63 1.778 -39.577 c 36.192 9.092 74.607 12.428 108.671 13.017 V 282.564 Z M 244.492 206.41 c -39.929 -0.723 -75.572 -5.221 -105.911 -13.208 c 4.368 -29.491 11.824 -57.085 22.064 -81.454 c 26.507 18.066 54.754 28.421 83.847 30.583 V 206.41 Z M 244.492 119.248 c -25.452 -2.245 -50.336 -11.927 -73.844 -28.596 c 0.36 -0.675 0.714 -1.358 1.079 -2.026 c 20.245 -37.088 45.737 -59.569 72.765 -64.557 V 119.248 Z M 397.177 70.788 c 26.469 20.225 48.492 45.979 64.327 75.529 c -0.075 0.077 -0.156 0.144 -0.23 0.223 c -15.45 16.585 -37.696 29.965 -65.643 39.852 c -5.066 -32.301 -13.662 -62.5 -25.437 -89.027 C 379.461 89.495 388.466 80.622 397.177 70.788 Z M 378.082 57.639 c -6.026 6.661 -12.191 12.794 -18.476 18.412 c -8.943 -16.111 -18.913 -29.839 -29.674 -41.011 C 346.938 40.745 363.07 48.366 378.082 57.639 Z M 267.503 24.069 c 27.027 4.988 52.52 27.469 72.764 64.557 c 0.366 0.67 0.72 1.353 1.082 2.03 c -23.508 16.669 -48.391 26.35 -73.845 28.593 V 24.069 Z M 351.349 111.749 c 10.24 24.369 17.697 51.963 22.064 81.453 c -30.339 7.986 -65.981 12.485 -105.91 13.207 V 142.33 h 0 C 296.596 140.169 324.844 129.814 351.349 111.749 Z M 267.503 229.437 c 34.062 -0.588 72.477 -3.926 108.669 -13.016 c 1.172 12.946 1.778 26.171 1.778 39.576 c 0 13.408 -0.605 26.633 -1.778 39.582 c -36.193 -9.089 -74.607 -12.426 -108.669 -13.014 V 229.437 Z M 267.503 305.589 c 39.928 0.723 75.57 5.22 105.909 13.205 c -4.367 29.488 -11.823 57.078 -22.062 81.445 c -26.509 -18.064 -54.756 -28.419 -83.847 -30.581 V 305.589 Z M 267.503 487.924 v -95.183 c 25.452 2.244 50.336 11.923 73.847 28.593 c -0.361 0.678 -0.717 1.362 -1.083 2.033 C 320.023 460.456 294.53 482.937 267.503 487.924 Z M 329.932 476.96 c 10.762 -11.174 20.726 -24.919 29.67 -41.03 c 6.29 5.622 12.462 11.759 18.492 18.424 C 363.078 463.629 346.943 471.253 329.932 476.96 Z M 397.189 441.203 c -8.714 -9.835 -17.723 -18.709 -26.992 -26.58 c 11.774 -26.525 20.368 -56.72 25.433 -89.018 c 27.947 9.884 50.194 23.262 65.645 39.845 c 0.075 0.081 0.156 0.147 0.234 0.226 C 445.675 395.225 423.654 420.978 397.189 441.203 Z M 398.652 302.106 c 1.522 -15.065 2.31 -30.482 2.31 -46.11 c 0 -15.627 -0.788 -31.041 -2.31 -46.105 c 27.808 -9.262 53.326 -22.568 73.253 -41.428 c 11.004 27.041 17.084 56.59 17.084 87.537 c 0 30.944 -6.078 60.491 -17.08 87.53 C 451.981 324.672 426.461 311.367 398.652 302.106 Z"/>
</svg>