<svg width="40" height="40" viewBox="0 0 50 50" xmlns="http://www.w3.org/2000/svg">
<path d="M 46.137 6.552 c -0.75 -0.636 -1.928 -0.727 -3.146 -0.238 l -0.002 0 C 41.708 6.828 6.728 21.832 5.304 22.445 c -0.259 0.09 -2.521 0.934 -2.288 2.814 c 0.208 1.695 2.026 2.397 2.248 2.478 l 8.893 3.045 c 0.59 1.964 2.765 9.21 3.246 10.758 c 0.3 0.965 0.789 2.233 1.646 2.494 c 0.752 0.29 1.5 0.025 1.984 -0.355 l 5.437 -5.043 l 8.777 6.845 l 0.209 0.125 c 0.596 0.264 1.167 0.396 1.712 0.396 c 0.421 0 0.825 -0.079 1.211 -0.237 c 1.315 -0.54 1.841 -1.793 1.896 -1.935 l 6.556 -34.077 C 47.231 7.933 46.675 7.007 46.137 6.552 Z M 22 32 l -3 8 l -3 -10 l 23 -17 L 22 32 Z"/>
</svg>
