<svg width="70" height="70" viewBox="0 0 50 50" xmlns="http://www.w3.org/2000/svg">
<path d="M 15 3 C 8.373 3 3 8.373 3 15 C 3 17.2512 3.63234 19.3501 4.71094 21.1504 L 3.10742 27 L 9.08203 25.4316 C 10.8294 26.4251 12.8465 27 15 27 C 21.627 27 27 21.627 27 15 C 27 8.373 21.627 3 15 3 Z M 10.8926 9.40234 C 11.0876 9.40234 11.2879 9.40116 11.4609 9.41016 C 11.6749 9.41516 11.9079 9.43083 12.1309 9.92383 C 12.3959 10.5098 12.9729 11.9799 13.0469 12.1289 C 13.1209 12.2779 13.1733 12.4534 13.0703 12.6484 C 12.9723 12.8484 12.9213 12.9695 12.7773 13.1465 C 12.6283 13.3185 12.4651 13.5321 12.3301 13.6621 C 12.1811 13.8111 12.0272 13.9745 12.1992 14.2715 C 12.3712 14.5685 12.9686 15.5421 13.8516 16.3281 C 14.9866 17.3421 15.9442 17.6537 16.2422 17.8027 C 16.5402 17.9517 16.7128 17.9285 16.8848 17.7285 C 17.0618 17.5335 17.6281 16.8644 17.8281 16.5664 C 18.0231 16.2684 18.2222 16.32 18.4922 16.418 C 18.7662 16.516 20.2274 17.2358 20.5254 17.3848 C 20.8234 17.5338 21.0187 17.6075 21.0938 17.7285 C 21.1707 17.8535 21.1708 18.4486 20.9238 19.1426 C 20.6768 19.8356 19.4639 20.5057 18.9199 20.5527 C 18.3709 20.6037 17.8586 20.7995 15.3516 19.8125 C 12.3276 18.6215 10.4205 15.5242 10.2715 15.3242 C 10.1225 15.1292 9.06055 13.7139 9.06055 12.2539 C 9.06055 10.7889 9.82866 10.0714 10.0977 9.77344 C 10.3717 9.47544 10.6926 9.40234 10.8926 9.40234 Z"/>
</svg>